<svg xmlns="http://www.w3.org/2000/svg" viewBox="0 0 64 64" role="img" aria-label="AIPPT">
  <defs>
    <linearGradient id="deck" x1="10" x2="54" y1="12" y2="52" gradientUnits="userSpaceOnUse">
      <stop offset="0" stop-color="#0f172a"/>
      <stop offset="0.55" stop-color="#1e3a8a"/>
      <stop offset="1" stop-color="#0891b2"/>
    </linearGradient>
    <linearGradient id="bolt" x1="27" x2="42" y1="12" y2="46" gradientUnits="userSpaceOnUse">
      <stop offset="0" stop-color="#facc15"/>
      <stop offset="0.48" stop-color="#fb923c"/>
      <stop offset="1" stop-color="#38bdf8"/>
    </linearGradient>
    <filter id="shadow" x="-20%" y="-20%" width="140%" height="140%">
      <feDropShadow dx="0" dy="5" stdDeviation="4" flood-color="#0f172a" flood-opacity="0.2"/>
    </filter>
  </defs>
  <rect width="64" height="64" rx="14" fill="#f8fafc"/>
  <g filter="url(#shadow)">
    <path d="M14 16.5C14 13.46 16.46 11 19.5 11h25.2c1.46 0 2.86.58 3.9 1.61l5.79 5.79A5.5 5.5 0 0 1 56 22.29V47.5c0 3.04-2.46 5.5-5.5 5.5h-31C16.46 53 14 50.54 14 47.5v-31Z" fill="url(#deck)"/>
    <path d="M44 12.5V21c0 1.66 1.34 3 3 3h8.5" fill="none" stroke="#bae6fd" stroke-width="3" stroke-linecap="round" stroke-linejoin="round" opacity=".85"/>
    <path d="M29.2 13.6 20.7 34.1h10.1l-3.3 17.1 16-25.2H32.7l5-12.4h-8.5Z" fill="url(#bolt)"/>
    <path d="M19.5 43.5h18M19.5 37.5h10" stroke="#e0f2fe" stroke-width="3" stroke-linecap="round" opacity=".92"/>
  </g>
</svg>
